<svg width="94" height="30" viewBox="0 0 94 30" fill="none" xmlns="http://www.w3.org/2000/svg">
<g clip-path="url(#clip0_35_18)">
<path d="M29.2139 9.47594L15.0024 0L0.786089 9.47594C0.295379 9.80467 0 10.3525 0 10.9433V28.2373C0 29.2091 0.790853 30 1.76274 30H17.7227L14.9404 22.9204L18.809 21.4007L22.1868 30H28.2373C29.2091 30 30 29.2091 30 28.2373V10.9433C30 10.3525 29.7046 9.80467 29.2139 9.47594ZM10.7527 24.5641L10.7099 24.5831C9.86184 24.9166 8.89948 24.4974 8.56598 23.6494L6.02668 17.1796C5.69319 16.3316 6.11243 15.3692 6.96046 15.0357L7.00333 15.0167C7.85136 14.6832 8.81372 15.1024 9.14721 15.9505L11.6865 22.4202C12.02 23.2682 11.6008 24.2306 10.7527 24.5641ZM12.9728 22.0391L10.3478 15.3549L17.0319 12.7299L19.657 19.414L12.9728 22.0391ZM23.0443 19.738L23.0014 19.757C22.1534 20.0905 21.191 19.6713 20.8575 18.8232L18.3182 12.3535C17.9848 11.5055 18.404 10.5431 19.252 10.2096L19.2949 10.1906C20.1429 9.85707 21.1053 10.2763 21.4388 11.1243L23.9781 17.5941C24.3116 18.4421 23.8923 19.4045 23.0443 19.738Z" fill="#ECCA44"/>
</g>
<path d="M79.0668 25.7674C79.1164 25.795 79.1413 25.8253 79.1413 25.8584C79.1413 25.8805 79.133 25.9081 79.1164 25.9412L78.3385 27.5798C78.3165 27.6295 78.2833 27.6543 78.2392 27.6543C78.2116 27.6543 78.1868 27.6433 78.1647 27.6212L78.1233 27.5798C78.0958 27.5522 78.0406 27.5384 77.9578 27.5384H73.4309C73.3482 27.5384 73.3068 27.4971 73.3068 27.4143V27.166C73.3068 27.0833 73.3482 27.0419 73.4309 27.0419H73.4475C73.8447 27.0419 74.0434 26.7798 74.0434 26.2557V22.6225C74.0434 22.0984 73.842 21.8363 73.4392 21.8363H73.4309C73.3482 21.8363 73.3068 21.7949 73.3068 21.7122V21.4639C73.3068 21.3756 73.3482 21.3315 73.4309 21.3315H77.5771C77.6489 21.3315 77.7013 21.3177 77.7344 21.2901L77.784 21.2487C77.8006 21.2322 77.8227 21.2239 77.8502 21.2239C77.8944 21.2239 77.9302 21.2459 77.9578 21.2901L78.6116 22.4156C78.6282 22.4377 78.6364 22.4625 78.6364 22.4901C78.6364 22.5287 78.6144 22.5618 78.5702 22.5894L78.2392 22.7715C78.2006 22.7936 78.1702 22.8046 78.1482 22.8046C78.1096 22.8046 78.0765 22.7798 78.0489 22.7301L78.024 22.6887C77.853 22.4018 77.6682 22.2032 77.4696 22.0929C77.2765 21.977 77.0199 21.9191 76.6999 21.9191H75.3592V23.8639H76.0875C76.3358 23.8639 76.5289 23.817 76.6668 23.7232C76.8047 23.6294 76.8737 23.4915 76.8737 23.3094V23.2515C76.8737 23.1687 76.9151 23.1274 76.9978 23.1274H77.2461C77.3289 23.1274 77.3702 23.1687 77.3702 23.2515V25.1301C77.3702 25.2129 77.3289 25.2543 77.2461 25.2543H76.9978C76.9151 25.2543 76.8737 25.2129 76.8737 25.1301V25.0805C76.8737 24.8929 76.8047 24.755 76.6668 24.6667C76.5344 24.5729 76.3413 24.526 76.0875 24.526H75.3592V26.1646C75.3592 26.6888 75.5496 26.9509 75.9302 26.9509H76.4682C76.8765 26.9509 77.2075 26.9122 77.4613 26.835C77.7206 26.7577 77.9358 26.6281 78.1068 26.446C78.2833 26.2639 78.4489 26.0184 78.6033 25.7095L78.6282 25.6598C78.6558 25.6157 78.6916 25.5936 78.7358 25.5936C78.7633 25.5936 78.7854 25.5991 78.802 25.6101L79.0668 25.7674Z" fill="#121400"/>
<path d="M69.8796 23.2103C69.863 23.2158 69.8465 23.2241 69.8299 23.2351C69.8134 23.2406 69.7968 23.2434 69.7803 23.2434C69.7361 23.2434 69.6892 23.2103 69.6396 23.1441C69.2865 22.7027 68.9389 22.3854 68.5968 22.1923C68.2548 21.9992 67.9017 21.9027 67.5375 21.9027C67.3168 21.9027 67.1265 21.9606 66.9665 22.0765C66.812 22.1923 66.7348 22.3744 66.7348 22.6227C66.7348 22.8268 66.7982 22.9951 66.9251 23.1275C67.052 23.2599 67.2148 23.3703 67.4134 23.4586C67.6175 23.5413 67.8244 23.613 68.0341 23.6737C68.3486 23.762 68.6575 23.8613 68.961 23.9717C69.2699 24.082 69.5486 24.2144 69.7968 24.3689C70.0451 24.5179 70.2437 24.7027 70.3927 24.9234C70.5417 25.1386 70.6161 25.4007 70.6161 25.7096C70.6161 26.0848 70.5196 26.4186 70.3265 26.711C70.1389 27.0034 69.8658 27.2324 69.5072 27.3979C69.1486 27.5634 68.7155 27.6462 68.2079 27.6462C67.9596 27.6462 67.7251 27.6131 67.5044 27.5469C67.2892 27.4862 67.0796 27.4062 66.8755 27.3069C66.8313 27.2848 66.7899 27.2738 66.7513 27.2738C66.7017 27.2738 66.6768 27.3014 66.6768 27.3565C66.6768 27.3731 66.6824 27.4034 66.6934 27.4476C66.7099 27.4862 66.7182 27.5193 66.7182 27.5469C66.7182 27.6076 66.6713 27.6379 66.5775 27.6379H66.1637C66.0644 27.6379 65.9955 27.5993 65.9568 27.5221L64.9555 25.6434C64.9334 25.5993 64.9224 25.5662 64.9224 25.5441C64.9224 25.4834 64.9527 25.4365 65.0134 25.4034L65.3775 25.1965C65.3941 25.1855 65.4106 25.1772 65.4272 25.1717C65.4437 25.1662 65.4603 25.1634 65.4768 25.1634C65.532 25.1634 65.5789 25.1965 65.6175 25.2627C65.9927 25.831 66.4065 26.2531 66.8589 26.5289C67.3168 26.8048 67.783 26.9427 68.2575 26.9427C68.6161 26.9427 68.892 26.8627 69.0851 26.7027C69.2782 26.5372 69.3748 26.3303 69.3748 26.082C69.3748 25.8393 69.3141 25.6489 69.1927 25.511C69.0713 25.3731 68.8837 25.2572 68.6299 25.1634C68.3761 25.0696 68.0506 24.9648 67.6534 24.8489C67.383 24.7717 67.1155 24.6779 66.8506 24.5675C66.5858 24.4572 66.3458 24.3248 66.1306 24.1703C65.9155 24.0103 65.7417 23.8227 65.6093 23.6075C65.4824 23.3868 65.4189 23.1275 65.4189 22.8296C65.4189 22.4654 65.5099 22.1647 65.692 21.9275C65.8796 21.6903 66.1306 21.5165 66.4451 21.4061C66.7596 21.2903 67.1155 21.2323 67.5127 21.2323C67.8217 21.2323 68.0837 21.2709 68.2989 21.3482C68.5141 21.4254 68.6796 21.4972 68.7954 21.5634C68.8892 21.6185 68.9527 21.6461 68.9858 21.6461C69.0134 21.6461 69.0272 21.6296 69.0272 21.5965C69.0272 21.5689 69.0189 21.5303 69.0023 21.4806C68.9913 21.4309 68.9858 21.3785 68.9858 21.3234C68.9858 21.2406 69.0354 21.1992 69.1348 21.1992H69.4327C69.532 21.1992 69.601 21.2461 69.6396 21.3399L70.2189 22.8213C70.2299 22.8434 70.2382 22.8654 70.2437 22.8875C70.2492 22.9041 70.252 22.9206 70.252 22.9372C70.252 22.9868 70.2217 23.0282 70.161 23.0613L69.8796 23.2103Z" fill="#121400"/>
<path d="M62.5634 21.3315C62.6461 21.3315 62.6875 21.3729 62.6875 21.4557V21.704C62.6875 21.7867 62.6461 21.8281 62.5634 21.8281H62.5054C62.3013 21.8281 62.1578 21.9053 62.0751 22.0598C61.9923 22.2088 61.9509 22.3936 61.9509 22.6143V25.2626C61.9509 26.024 61.7606 26.6116 61.3799 27.0254C61.0047 27.4392 60.4061 27.6461 59.5841 27.6461C58.7675 27.6461 58.1358 27.442 57.6889 27.0337C57.2475 26.6254 57.0268 26.0626 57.0268 25.3454V22.6143C57.0268 22.3936 56.9854 22.2088 56.9027 22.0598C56.8254 21.9053 56.682 21.8281 56.4723 21.8281H56.4144C56.3316 21.8281 56.2903 21.7867 56.2903 21.704V21.4557C56.2903 21.3729 56.3316 21.3315 56.4144 21.3315H58.9551C59.0378 21.3315 59.0792 21.3729 59.0792 21.4557V21.704C59.0792 21.7867 59.0378 21.8281 58.9551 21.8281H58.9054C58.7013 21.8281 58.5578 21.9053 58.4751 22.0598C58.3923 22.2088 58.351 22.3936 58.351 22.6143V25.1799C58.351 25.4116 58.3675 25.6323 58.4006 25.842C58.4337 26.0516 58.4999 26.2364 58.5992 26.3964C58.7041 26.5564 58.853 26.6833 59.0461 26.7771C59.2447 26.8709 59.5041 26.9178 59.8241 26.9178C60.1441 26.9178 60.3978 26.8433 60.5854 26.6944C60.773 26.5399 60.9082 26.333 60.9909 26.0737C61.0737 25.8088 61.1151 25.5109 61.1151 25.1799V22.6143C61.1151 22.3936 61.0737 22.2088 60.9909 22.0598C60.9137 21.9053 60.7703 21.8281 60.5606 21.8281H60.5109C60.4282 21.8281 60.3868 21.7867 60.3868 21.704V21.4557C60.3868 21.3729 60.4282 21.3315 60.5109 21.3315H62.5634Z" fill="#121400"/>
<path d="M50.4787 21.2322C50.9146 21.2322 51.3229 21.3177 51.7036 21.4887C52.0898 21.6598 52.4263 21.897 52.7132 22.2005C53.0056 22.4984 53.2318 22.8432 53.3918 23.235C53.5574 23.6267 53.6401 24.0433 53.6401 24.4846C53.6401 24.926 53.5601 25.3398 53.4001 25.726C53.2401 26.1067 53.0167 26.4405 52.7298 26.7274C52.4484 27.0143 52.1229 27.2405 51.7532 27.4061C51.3836 27.5661 50.9891 27.6461 50.5698 27.6461C50.1339 27.6461 49.7229 27.5605 49.3367 27.3895C48.956 27.2185 48.6222 26.984 48.3353 26.686C48.0484 26.3826 47.8222 26.035 47.6567 25.6433C47.4967 25.2515 47.4167 24.8377 47.4167 24.4019C47.4167 23.9715 47.4939 23.566 47.6484 23.1853C47.8029 22.8046 48.0181 22.4681 48.2939 22.1756C48.5753 21.8777 48.9008 21.646 49.2705 21.4805C49.6401 21.3149 50.0429 21.2322 50.4787 21.2322ZM50.3877 21.9605C49.836 21.9605 49.4084 22.1453 49.105 22.515C48.8015 22.8791 48.6498 23.3619 48.6498 23.9633C48.6498 24.2005 48.6746 24.4543 48.7243 24.7246C48.7739 24.995 48.8484 25.2598 48.9477 25.5191C49.0525 25.7729 49.185 26.0047 49.345 26.2143C49.505 26.424 49.6925 26.5923 49.9077 26.7192C50.1229 26.8461 50.3712 26.9095 50.6525 26.9095C51.0277 26.9095 51.345 26.8267 51.6043 26.6612C51.8691 26.4902 52.0677 26.2557 52.2001 25.9578C52.3381 25.6543 52.407 25.3067 52.407 24.915C52.407 24.6998 52.3822 24.4598 52.3325 24.195C52.2884 23.9301 52.2139 23.6681 52.1091 23.4088C52.0098 23.1439 51.8801 22.9039 51.7201 22.6888C51.5656 22.4681 51.3781 22.2915 51.1574 22.1591C50.9367 22.0267 50.6801 21.9605 50.3877 21.9605Z" fill="#121400"/>
<path d="M43.9551 26.2558C43.9551 26.4764 43.9937 26.664 44.0709 26.8185C44.1537 26.9675 44.2999 27.042 44.5095 27.042H44.5592C44.6419 27.042 44.6833 27.0833 44.6833 27.1661V27.4144C44.6833 27.4971 44.6419 27.5385 44.5592 27.5385H42.0185C41.9357 27.5385 41.8944 27.4971 41.8944 27.4144V27.1661C41.8944 27.0833 41.9357 27.042 42.0185 27.042H42.0682C42.2778 27.042 42.424 26.9675 42.5068 26.8185C42.5895 26.664 42.6309 26.4764 42.6309 26.2558V24.6833H39.8006V26.2558C39.8006 26.4764 39.842 26.664 39.9247 26.8185C40.0075 26.9675 40.1537 27.042 40.3633 27.042H40.413C40.4957 27.042 40.5371 27.0833 40.5371 27.1661V27.4144C40.5371 27.4971 40.4957 27.5385 40.413 27.5385H37.8723C37.7895 27.5385 37.7482 27.4971 37.7482 27.4144V27.1661C37.7482 27.0833 37.7895 27.042 37.8723 27.042H37.922C38.1316 27.042 38.2751 26.9675 38.3523 26.8185C38.4351 26.664 38.4764 26.4764 38.4764 26.2558V22.6143C38.4764 22.3936 38.4351 22.2088 38.3523 22.0598C38.2751 21.9053 38.1316 21.8281 37.922 21.8281H37.8723C37.7895 21.8281 37.7482 21.7867 37.7482 21.704V21.4557C37.7482 21.3729 37.7895 21.3315 37.8723 21.3315H40.413C40.4957 21.3315 40.5371 21.3729 40.5371 21.4557V21.704C40.5371 21.7867 40.4957 21.8281 40.413 21.8281H40.3633C40.1537 21.8281 40.0075 21.9053 39.9247 22.0598C39.842 22.2088 39.8006 22.3936 39.8006 22.6143V24.0295H42.6309V22.6143C42.6309 22.3936 42.5895 22.2088 42.5068 22.0598C42.424 21.9053 42.2778 21.8281 42.0682 21.8281H42.0185C41.9357 21.8281 41.8944 21.7867 41.8944 21.704V21.4557C41.8944 21.3729 41.9357 21.3315 42.0185 21.3315H44.5592C44.6419 21.3315 44.6833 21.3729 44.6833 21.4557V21.704C44.6833 21.7867 44.6419 21.8281 44.5592 21.8281H44.5095C44.2999 21.8281 44.1537 21.9053 44.0709 22.0598C43.9937 22.2088 43.9551 22.3936 43.9551 22.6143V26.2558Z" fill="#121400"/>
<path d="M93.8305 12.5383C93.9132 12.5383 93.9546 12.5797 93.9546 12.6625V12.9107C93.9546 12.9935 93.9132 13.0349 93.8305 13.0349C93.6263 13.0349 93.4746 13.1094 93.3753 13.2583C93.276 13.4073 93.2263 13.5949 93.2263 13.8211V18.6212C93.2263 18.7039 93.1849 18.7453 93.1022 18.7453H92.5311C92.476 18.7453 92.4263 18.7205 92.3822 18.6708L88.4677 14.1687V17.4625C88.4677 17.6832 88.5174 17.8708 88.6167 18.0253C88.7215 18.1743 88.876 18.2488 89.0801 18.2488C89.1629 18.2488 89.2043 18.2901 89.2043 18.3729V18.6212C89.2043 18.7039 89.1629 18.7453 89.0801 18.7453H87.036C86.9532 18.7453 86.9118 18.7039 86.9118 18.6212V18.3729C86.9118 18.2901 86.9532 18.2488 87.036 18.2488C87.2401 18.2488 87.3918 18.1743 87.4912 18.0253C87.5905 17.8708 87.6401 17.6832 87.6401 17.4625V13.2418C87.5574 13.1701 87.4746 13.1176 87.3918 13.0845C87.3146 13.0514 87.2236 13.0349 87.1187 13.0349C87.036 13.0349 86.9946 12.9935 86.9946 12.9107V12.6625C86.9946 12.5797 87.036 12.5383 87.1187 12.5383H88.5505C88.6112 12.5383 88.6608 12.5632 88.6994 12.6128L92.3987 16.8336V13.8211C92.3987 13.5949 92.3463 13.4073 92.2415 13.2583C92.1422 13.1094 91.9905 13.0349 91.7863 13.0349C91.7036 13.0349 91.6622 12.9935 91.6622 12.9107V12.6625C91.6622 12.5797 91.7036 12.5383 91.7863 12.5383H93.8305Z" fill="#121400"/>
<path d="M81.0185 12.439C81.4544 12.439 81.8627 12.5245 82.2434 12.6955C82.6296 12.8666 82.9661 13.1038 83.253 13.4073C83.5454 13.7052 83.7716 14.05 83.9316 14.4418C84.0972 14.8335 84.1799 15.25 84.1799 15.6914C84.1799 16.1328 84.0999 16.5466 83.9399 16.9328C83.7799 17.3135 83.5565 17.6473 83.2696 17.9342C82.9882 18.2211 82.6627 18.4473 82.293 18.6128C81.9234 18.7728 81.5289 18.8528 81.1096 18.8528C80.6737 18.8528 80.2627 18.7673 79.8765 18.5963C79.4958 18.4253 79.162 18.1908 78.8751 17.8928C78.5882 17.5894 78.362 17.2418 78.1965 16.8501C78.0365 16.4583 77.9565 16.0445 77.9565 15.6087C77.9565 15.1783 78.0337 14.7728 78.1882 14.3921C78.3427 14.0114 78.5579 13.6748 78.8337 13.3824C79.1151 13.0845 79.4406 12.8528 79.8103 12.6872C80.1799 12.5217 80.5827 12.439 81.0185 12.439ZM80.9275 13.1673C80.3758 13.1673 79.9482 13.3521 79.6448 13.7217C79.3413 14.0859 79.1896 14.5687 79.1896 15.17C79.1896 15.4073 79.2144 15.6611 79.2641 15.9314C79.3137 16.2018 79.3882 16.4666 79.4875 16.7259C79.5923 16.9797 79.7248 17.2114 79.8848 17.4211C80.0448 17.6308 80.2323 17.799 80.4475 17.9259C80.6627 18.0528 80.911 18.1163 81.1923 18.1163C81.5675 18.1163 81.8847 18.0335 82.1441 17.868C82.4089 17.697 82.6075 17.4625 82.7399 17.1645C82.8779 16.8611 82.9468 16.5135 82.9468 16.1218C82.9468 15.9066 82.922 15.6666 82.8723 15.4018C82.8282 15.1369 82.7537 14.8749 82.6489 14.6155C82.5496 14.3507 82.4199 14.1107 82.2599 13.8955C82.1054 13.6748 81.9179 13.4983 81.6972 13.3659C81.4765 13.2335 81.2199 13.1673 80.9275 13.1673Z" fill="#121400"/>
<path d="M74.4956 17.4625C74.4956 17.6832 74.537 17.8708 74.6198 18.0253C74.7025 18.1743 74.846 18.2488 75.0501 18.2488H75.0998C75.1825 18.2488 75.2239 18.2901 75.2239 18.3729V18.6212C75.2239 18.7039 75.1825 18.7453 75.0998 18.7453H72.5591C72.4763 18.7453 72.4349 18.7039 72.4349 18.6212V18.3729C72.4349 18.2901 72.4763 18.2488 72.5591 18.2488H72.617C72.8267 18.2488 72.9701 18.1743 73.0474 18.0253C73.1301 17.8708 73.1715 17.6832 73.1715 17.4625V13.8211C73.1715 13.6004 73.1301 13.4156 73.0474 13.2666C72.9701 13.1121 72.8267 13.0349 72.617 13.0349H72.5591C72.4763 13.0349 72.4349 12.9935 72.4349 12.9107V12.6625C72.4349 12.5797 72.4763 12.5383 72.5591 12.5383H75.0998C75.1825 12.5383 75.2239 12.5797 75.2239 12.6625V12.9107C75.2239 12.9935 75.1825 13.0349 75.0998 13.0349H75.0501C74.846 13.0349 74.7025 13.1121 74.6198 13.2666C74.537 13.4156 74.4956 13.6004 74.4956 13.8211V17.4625Z" fill="#121400"/>
<path d="M68.5344 12.5382C68.562 12.5382 68.5923 12.5355 68.6254 12.53C68.664 12.5189 68.7027 12.4941 68.7413 12.4555C68.7633 12.4334 68.7882 12.4224 68.8158 12.4224C68.8599 12.4224 68.893 12.4472 68.9151 12.4968L69.5689 13.7051C69.5854 13.7382 69.5937 13.7631 69.5937 13.7796C69.5937 13.8238 69.5716 13.8569 69.5275 13.8789L69.1799 14.0693C69.1468 14.0858 69.1192 14.0941 69.0971 14.0941C69.064 14.0941 69.0337 14.0693 69.0061 14.0196L68.9813 13.97C68.8433 13.6941 68.6447 13.4982 68.3854 13.3824C68.1261 13.2665 67.8282 13.2086 67.4916 13.2086H67.0861V17.4624C67.0861 17.6831 67.1275 17.8707 67.2102 18.0252C67.293 18.1742 67.4392 18.2487 67.6489 18.2487H67.7068C67.7895 18.2487 67.8309 18.29 67.8309 18.3728V18.6211C67.8309 18.7038 67.7895 18.7452 67.7068 18.7452H65.1578C65.0751 18.7452 65.0337 18.7038 65.0337 18.6211V18.3728C65.0337 18.29 65.0751 18.2487 65.1578 18.2487H65.2075C65.4171 18.2487 65.5633 18.1742 65.6461 18.0252C65.7289 17.8707 65.7702 17.6831 65.7702 17.4624V13.2086H65.3647C65.0282 13.2086 64.7302 13.2665 64.4709 13.3824C64.2116 13.4982 64.013 13.6941 63.8751 13.97L63.8502 14.0196C63.8227 14.0693 63.7923 14.0941 63.7592 14.0941C63.7371 14.0941 63.7096 14.0858 63.6765 14.0693L63.3289 13.8789C63.2847 13.8569 63.2627 13.8238 63.2627 13.7796C63.2627 13.7631 63.2709 13.7382 63.2875 13.7051L63.9413 12.4968C63.9689 12.4472 64.002 12.4224 64.0406 12.4224C64.0682 12.4224 64.093 12.4334 64.1151 12.4555C64.1537 12.4941 64.1896 12.5189 64.2227 12.53C64.2613 12.5355 64.2944 12.5382 64.322 12.5382H68.5344Z" fill="#121400"/>
<path d="M60.5811 16.759C60.6142 16.7756 60.6418 16.7921 60.6639 16.8087C60.6859 16.8197 60.697 16.839 60.697 16.8666C60.697 16.8776 60.6914 16.8997 60.6804 16.9328C60.5921 17.148 60.4707 17.3687 60.3163 17.5949C60.1673 17.8156 59.9797 18.0225 59.7535 18.2156C59.5328 18.4087 59.268 18.5632 58.959 18.6791C58.6556 18.7949 58.3052 18.8528 57.908 18.8528C57.2459 18.8528 56.6859 18.7149 56.228 18.439C55.7701 18.1632 55.4225 17.788 55.1852 17.3135C54.948 16.8335 54.8294 16.2983 54.8294 15.708C54.8294 15.4321 54.8597 15.1452 54.9204 14.8473C54.9811 14.5438 55.0804 14.2486 55.2183 13.9617C55.3563 13.6748 55.5411 13.4183 55.7728 13.1921C56.0101 12.9604 56.3025 12.7783 56.6501 12.6459C56.9977 12.5079 57.4087 12.439 57.8832 12.439C58.2804 12.439 58.6225 12.4886 58.9094 12.5879C59.1963 12.6872 59.4363 12.8141 59.6294 12.9686C59.8225 13.1176 59.977 13.2748 60.0928 13.4404C60.2087 13.6059 60.2914 13.7604 60.3411 13.9038C60.3907 14.0473 60.4156 14.1549 60.4156 14.2266C60.4156 14.3038 60.3687 14.359 60.2749 14.3921L59.2652 14.748C59.2101 14.77 59.1604 14.7811 59.1163 14.7811C59.0501 14.7811 59.017 14.7535 59.017 14.6983C59.017 14.6873 59.0197 14.6459 59.0252 14.5742C59.0308 14.5024 59.0335 14.4528 59.0335 14.4252C59.0335 14.2266 58.9976 14.0252 58.9259 13.8211C58.8542 13.6169 58.7301 13.4459 58.5535 13.3079C58.377 13.1645 58.1314 13.0928 57.817 13.0928C57.519 13.0928 57.268 13.1645 57.0639 13.3079C56.8652 13.4514 56.7052 13.639 56.5839 13.8707C56.4625 14.1024 56.3742 14.348 56.319 14.6073C56.2694 14.8666 56.2446 15.1121 56.2446 15.3438C56.2446 15.879 56.308 16.3507 56.4349 16.759C56.5618 17.1618 56.7577 17.479 57.0225 17.7108C57.2928 17.937 57.6321 18.0501 58.0404 18.0501C58.4487 18.0501 58.7825 17.9784 59.0418 17.8349C59.3066 17.6915 59.5163 17.5177 59.6708 17.3135C59.8307 17.1039 59.9549 16.8997 60.0432 16.7011C60.0763 16.6294 60.1232 16.5935 60.1839 16.5935C60.2114 16.5935 60.2473 16.6045 60.2914 16.6266L60.5811 16.759Z" fill="#121400"/>
<path d="M52.225 12.5383C52.3078 12.5383 52.3492 12.5797 52.3492 12.6625V12.9107C52.3492 12.9935 52.3078 13.0349 52.225 13.0349H52.1671C51.9629 13.0349 51.8195 13.1121 51.7367 13.2666C51.654 13.4156 51.6126 13.6004 51.6126 13.8211V16.4694C51.6126 17.2308 51.4223 17.8184 51.0416 18.2322C50.6664 18.646 50.0678 18.8529 49.2457 18.8529C48.4292 18.8529 47.7974 18.6488 47.3505 18.2405C46.9092 17.8322 46.6885 17.2694 46.6885 16.5522V13.8211C46.6885 13.6004 46.6471 13.4156 46.5643 13.2666C46.4871 13.1121 46.3437 13.0349 46.134 13.0349H46.0761C45.9933 13.0349 45.9519 12.9935 45.9519 12.9107V12.6625C45.9519 12.5797 45.9933 12.5383 46.0761 12.5383H48.6167C48.6995 12.5383 48.7409 12.5797 48.7409 12.6625V12.9107C48.7409 12.9935 48.6995 13.0349 48.6167 13.0349H48.5671C48.363 13.0349 48.2195 13.1121 48.1367 13.2666C48.054 13.4156 48.0126 13.6004 48.0126 13.8211V16.3867C48.0126 16.6184 48.0292 16.8391 48.0623 17.0487C48.0954 17.2584 48.1616 17.4432 48.2609 17.6032C48.3657 17.7632 48.5147 17.8901 48.7078 17.9839C48.9064 18.0777 49.1657 18.1246 49.4857 18.1246C49.8057 18.1246 50.0595 18.0501 50.2471 17.9012C50.4347 17.7467 50.5698 17.5398 50.6526 17.2805C50.7354 17.0156 50.7767 16.7177 50.7767 16.3867V13.8211C50.7767 13.6004 50.7354 13.4156 50.6526 13.2666C50.5754 13.1121 50.4319 13.0349 50.2223 13.0349H50.1726C50.0898 13.0349 50.0485 12.9935 50.0485 12.9107V12.6625C50.0485 12.5797 50.0898 12.5383 50.1726 12.5383H52.225Z" fill="#121400"/>
<path d="M43.2185 17.4625C43.3068 17.6887 43.3923 17.8763 43.4751 18.0253C43.5578 18.1743 43.6764 18.2488 43.8309 18.2488C43.8861 18.2488 43.9192 18.2598 43.9302 18.2819C43.9468 18.2984 43.9551 18.3288 43.9551 18.3729V18.6212C43.9551 18.7039 43.9137 18.7453 43.8309 18.7453H41.2902C41.2075 18.7453 41.1661 18.7039 41.1661 18.6212V18.3729C41.1661 18.3288 41.1716 18.2984 41.1826 18.2819C41.1992 18.2598 41.2351 18.2488 41.2902 18.2488C41.4392 18.2488 41.5826 18.1936 41.7206 18.0832C41.864 17.9729 41.9358 17.8377 41.9358 17.6777C41.9358 17.6391 41.9302 17.6032 41.9192 17.5701C41.9137 17.537 41.9054 17.5012 41.8944 17.4625L41.6378 16.7591H39.3702L39.122 17.4625C39.1109 17.5012 39.1027 17.5398 39.0971 17.5784C39.0916 17.6115 39.0889 17.6419 39.0889 17.6694C39.0889 17.846 39.1606 17.9867 39.304 18.0915C39.4475 18.1963 39.5909 18.2488 39.7344 18.2488C39.7951 18.2488 39.8309 18.2598 39.842 18.2819C39.853 18.2984 39.8585 18.3288 39.8585 18.3729V18.6212C39.8585 18.7039 39.8171 18.7453 39.7344 18.7453H37.6737C37.5909 18.7453 37.5496 18.7039 37.5496 18.6212V18.3729C37.5496 18.3288 37.5551 18.2984 37.5661 18.2819C37.5827 18.2598 37.6185 18.2488 37.6737 18.2488C37.8392 18.2488 37.9633 18.1715 38.0461 18.017C38.1344 17.8625 38.2171 17.6777 38.2944 17.4625L40.0737 12.6459C40.0958 12.5742 40.1427 12.5383 40.2144 12.5383H41.2158C41.2875 12.5383 41.3344 12.5714 41.3564 12.6376L43.2185 17.4625ZM39.6268 16.0391H41.373L40.4792 13.6225L39.6268 16.0391Z" fill="#121400"/>
<defs>
<clipPath id="clip0_35_18">
<rect width="30" height="30" fill="white"/>
</clipPath>
</defs>
</svg>
