<svg width="270" height="87" viewBox="0 0 270 87" fill="none" xmlns="http://www.w3.org/2000/svg">
<path d="M84.127 28.1083L43.4189 0.969971L2.71095 28.1083C1.30582 29.0361 0.460007 30.6188 0.460007 32.3107V81.8392C0.460007 84.6226 2.72459 86.8876 5.50758 86.8876H46.8158L39.4355 68.0995L39.3263 67.813L39.108 67.8948L38.2486 68.2359C37.7848 71.2376 35.7794 73.9392 32.7508 75.1262L32.6553 75.1672L32.5462 75.2081H32.5053C31.5094 75.5901 30.459 75.7812 29.3949 75.7812C25.7388 75.7812 22.5056 73.5844 21.1823 70.187L13.9111 51.6582C12.1513 47.1693 14.334 42.08 18.795 40.2653L18.8495 40.238L18.9314 40.1971L19.0133 40.1698C20.05 39.7605 21.1414 39.5558 22.2464 39.5558C24.3064 39.5558 26.2299 40.2516 27.7578 41.4796L28.6036 41.1385L47.7435 33.6206L48.5893 33.2795C49.0531 30.2777 51.0585 27.5898 54.0871 26.3891L54.1962 26.3482L54.2917 26.3209H54.3326C55.3285 25.9252 56.3789 25.7342 57.443 25.7342C61.0991 25.7342 64.3186 27.9309 65.6556 31.342L72.9268 49.8572C74.7003 54.3598 72.5039 59.449 68.0429 61.2637H67.9884L67.9065 61.3183L67.8247 61.3456C66.7878 61.7549 65.7101 61.9596 64.6051 61.9596C62.5452 61.9596 60.6216 61.2637 59.1074 60.0494L58.2479 60.3769L58.016 60.4724L58.1251 60.7589L67.7974 85.4003L68.384 86.8876H81.3303C84.1133 86.8876 86.3779 84.6226 86.3779 81.8392V32.3107C86.3779 30.6188 85.5321 29.0361 84.127 28.1083Z" fill="white"/>
<path d="M56.5154 56.6653L37.8393 63.9922C37.8121 63.8831 37.7711 63.7876 37.7302 63.6784L30.459 45.1632C30.4181 45.0541 30.3771 44.9449 30.3226 44.8494L48.9986 37.5225C49.0259 37.6316 49.0668 37.7271 49.1077 37.8363L56.379 56.3651C56.4199 56.4606 56.4608 56.5698 56.5154 56.6653Z" fill="white"/>
<path d="M63.9912 86.8875H51.2085L43.2416 66.5986L54.3189 62.2461L63.9912 86.8875Z" fill="white"/>
<path d="M66.4468 57.4842L66.324 57.5388C66.2149 57.5797 66.0921 57.6206 65.983 57.6616C65.5328 57.8117 65.069 57.8662 64.6051 57.8662C64.1413 57.8662 63.6638 57.798 63.2136 57.6616C62.9272 57.5661 62.6407 57.4569 62.3678 57.2932C62.2314 57.225 62.095 57.1431 61.9586 57.0612C61.7676 56.9384 61.5766 56.7884 61.4129 56.6246C61.331 56.5564 61.2628 56.5018 61.1946 56.42C61.1537 56.379 61.1128 56.3517 61.0855 56.3108C61.0582 56.2699 61.0309 56.2289 60.99 56.188C60.6489 55.806 60.3761 55.3694 60.1851 54.8645L52.9139 36.3357C52.7092 35.8308 52.6137 35.3124 52.5865 34.7939C52.5182 32.8291 53.6642 30.9462 55.5877 30.1958L55.7105 30.1549C56.2835 29.9365 56.8701 29.8274 57.443 29.8274C59.3393 29.8274 61.1128 30.9735 61.8494 32.8291L69.1207 51.358C70.0756 53.7866 68.8751 56.5291 66.4468 57.4842Z" fill="white"/>
<path d="M34.2514 66.7218C34.3196 68.6865 33.1737 70.5694 31.2502 71.3199L31.1274 71.3608C30.8409 71.47 30.5544 71.5518 30.2543 71.6064C29.9678 71.661 29.6813 71.6883 29.3948 71.6883C27.4986 71.6883 25.7251 70.5558 24.9884 68.6865L17.7172 50.1577C16.7623 47.729 17.9628 44.9865 20.3911 44.0315L20.5138 43.9769C21.0868 43.7586 21.6734 43.6494 22.2464 43.6494C23.6242 43.6494 24.9475 44.2634 25.8343 45.314C26.1753 45.696 26.4482 46.1463 26.6528 46.6511L33.924 65.18C34.1287 65.6848 34.2241 66.2033 34.2514 66.7218Z" fill="white"/>
<path d="M226.902 74.7645C227.045 74.8435 227.116 74.9304 227.116 75.0252C227.116 75.0884 227.092 75.1674 227.045 75.2622L224.817 79.9551C224.753 80.0973 224.659 80.1684 224.532 80.1684C224.453 80.1684 224.382 80.1368 224.319 80.0736L224.2 79.9551C224.121 79.8761 223.963 79.8366 223.726 79.8366H210.762C210.525 79.8366 210.406 79.7181 210.406 79.4811V78.7701C210.406 78.533 210.525 78.4145 210.762 78.4145H210.809C211.947 78.4145 212.516 77.664 212.516 76.1629V65.758C212.516 64.2569 211.939 63.5063 210.785 63.5063H210.762C210.525 63.5063 210.406 63.3878 210.406 63.1508V62.4398C210.406 62.187 210.525 62.0606 210.762 62.0606H222.636C222.841 62.0606 222.992 62.0211 223.086 61.9421L223.229 61.8235C223.276 61.7761 223.339 61.7524 223.418 61.7524C223.545 61.7524 223.647 61.8156 223.726 61.9421L225.599 65.1654C225.646 65.2286 225.67 65.2998 225.67 65.3788C225.67 65.4894 225.607 65.5842 225.48 65.6632L224.532 66.1846C224.422 66.2478 224.335 66.2794 224.271 66.2794C224.161 66.2794 224.066 66.2083 223.987 66.0661L223.916 65.9476C223.426 65.1259 222.897 64.5571 222.328 64.2411C221.775 63.9093 221.04 63.7434 220.124 63.7434H216.284V69.3132H218.37C219.081 69.3132 219.634 69.1789 220.029 68.9103C220.424 68.6417 220.621 68.2466 220.621 67.7252V67.5593C220.621 67.3223 220.74 67.2038 220.977 67.2038H221.688C221.925 67.2038 222.044 67.3223 222.044 67.5593V72.9395C222.044 73.1765 221.925 73.295 221.688 73.295H220.977C220.74 73.295 220.621 73.1765 220.621 72.9395V72.7973C220.621 72.2601 220.424 71.865 220.029 71.6122C219.65 71.3436 219.097 71.2093 218.37 71.2093H216.284V75.9022C216.284 77.4033 216.829 78.1538 217.919 78.1538H219.46C220.629 78.1538 221.577 78.0432 222.304 77.822C223.047 77.6008 223.663 77.2295 224.153 76.708C224.659 76.1866 225.133 75.4835 225.575 74.5986L225.646 74.4564C225.725 74.33 225.828 74.2668 225.954 74.2668C226.033 74.2668 226.096 74.2826 226.144 74.3142L226.902 74.7645Z" fill="white"/>
<path d="M200.591 67.4411C200.543 67.4569 200.496 67.4806 200.449 67.5122C200.401 67.528 200.354 67.5359 200.306 67.5359C200.18 67.5359 200.046 67.4411 199.903 67.2515C198.892 65.9874 197.897 65.0788 196.917 64.5258C195.937 63.9728 194.926 63.6963 193.883 63.6963C193.251 63.6963 192.706 63.8622 192.248 64.194C191.805 64.5258 191.584 65.0472 191.584 65.7583C191.584 66.3429 191.766 66.8248 192.129 67.2041C192.493 67.5833 192.959 67.8993 193.528 68.1521C194.112 68.3891 194.705 68.5946 195.305 68.7684C196.206 69.0212 197.091 69.3056 197.96 69.6216C198.845 69.9376 199.643 70.3169 200.354 70.7593C201.065 71.1859 201.634 71.7152 202.06 72.3473C202.487 72.9635 202.7 73.7141 202.7 74.5989C202.7 75.6734 202.424 76.6293 201.871 77.4668C201.333 78.3042 200.551 78.96 199.524 79.434C198.497 79.908 197.257 80.145 195.803 80.145C195.092 80.145 194.42 80.0502 193.788 79.8606C193.172 79.6868 192.572 79.4577 191.987 79.1733C191.861 79.1101 191.742 79.0785 191.632 79.0785C191.489 79.0785 191.418 79.1575 191.418 79.3155C191.418 79.3629 191.434 79.4498 191.466 79.5762C191.513 79.6868 191.537 79.7816 191.537 79.8606C191.537 80.0344 191.402 80.1213 191.134 80.1213H189.949C189.664 80.1213 189.467 80.0107 189.356 79.7895L186.488 74.4093C186.425 74.2829 186.394 74.1881 186.394 74.1249C186.394 73.9511 186.48 73.8168 186.654 73.722L187.697 73.1294C187.745 73.0978 187.792 73.0741 187.839 73.0583C187.887 73.0425 187.934 73.0346 187.982 73.0346C188.14 73.0346 188.274 73.1294 188.384 73.319C189.459 74.9465 190.644 76.1553 191.94 76.9453C193.251 77.7354 194.586 78.1304 195.945 78.1304C196.972 78.1304 197.762 77.9013 198.315 77.4431C198.868 76.969 199.145 76.3765 199.145 75.6655C199.145 74.9702 198.971 74.4251 198.623 74.0301C198.276 73.635 197.739 73.3032 197.012 73.0346C196.285 72.766 195.353 72.4658 194.215 72.134C193.441 71.9127 192.674 71.6441 191.916 71.3281C191.158 71.0121 190.47 70.6329 189.854 70.1904C189.238 69.7322 188.74 69.195 188.361 68.5787C187.997 67.9467 187.816 67.2041 187.816 66.3508C187.816 65.308 188.076 64.4468 188.598 63.7674C189.135 63.0879 189.854 62.5902 190.755 62.2742C191.655 61.9424 192.674 61.7764 193.812 61.7764C194.697 61.7764 195.447 61.8871 196.064 62.1083C196.68 62.3295 197.154 62.5349 197.486 62.7245C197.754 62.8825 197.936 62.9615 198.031 62.9615C198.11 62.9615 198.149 62.9141 198.149 62.8193C198.149 62.7403 198.126 62.6297 198.078 62.4875C198.047 62.3453 198.031 62.1952 198.031 62.0372C198.031 61.8001 198.173 61.6816 198.458 61.6816H199.311C199.595 61.6816 199.793 61.8159 199.903 62.0846L201.562 66.3271C201.594 66.3903 201.618 66.4535 201.634 66.5167C201.649 66.5641 201.657 66.6115 201.657 66.6589C201.657 66.8011 201.57 66.9197 201.397 67.0145L200.591 67.4411Z" fill="white"/>
<path d="M179.638 62.061C179.875 62.061 179.993 62.1795 179.993 62.4166V63.1276C179.993 63.3646 179.875 63.4831 179.638 63.4831H179.472C178.887 63.4831 178.476 63.7043 178.239 64.1468C178.002 64.5734 177.884 65.1027 177.884 65.7348V73.3192C177.884 75.4997 177.338 77.1825 176.248 78.3676C175.174 79.5527 173.459 80.1452 171.105 80.1452C168.766 80.1452 166.957 79.5606 165.677 78.3913C164.413 77.222 163.781 75.6103 163.781 73.5562V65.7348C163.781 65.1027 163.663 64.5734 163.426 64.1468C163.204 63.7043 162.794 63.4831 162.193 63.4831H162.027C161.79 63.4831 161.672 63.3646 161.672 63.1276V62.4166C161.672 62.1795 161.79 62.061 162.027 62.061H169.304C169.541 62.061 169.659 62.1795 169.659 62.4166V63.1276C169.659 63.3646 169.541 63.4831 169.304 63.4831H169.161C168.577 63.4831 168.166 63.7043 167.929 64.1468C167.692 64.5734 167.573 65.1027 167.573 65.7348V73.0822C167.573 73.7458 167.621 74.3779 167.716 74.9783C167.81 75.5787 168 76.1081 168.284 76.5663C168.585 77.0245 169.011 77.3879 169.564 77.6566C170.133 77.9252 170.876 78.0595 171.792 78.0595C172.709 78.0595 173.436 77.8462 173.973 77.4195C174.51 76.9771 174.897 76.3846 175.134 75.6419C175.371 74.8835 175.49 74.0302 175.49 73.0822V65.7348C175.49 65.1027 175.371 64.5734 175.134 64.1468C174.913 63.7043 174.502 63.4831 173.902 63.4831H173.76C173.523 63.4831 173.404 63.3646 173.404 63.1276V62.4166C173.404 62.1795 173.523 62.061 173.76 62.061H179.638Z" fill="white"/>
<path d="M145.028 61.7764C146.276 61.7764 147.445 62.0213 148.536 62.5111C149.642 63.0009 150.606 63.6804 151.427 64.5494C152.265 65.4027 152.913 66.3902 153.371 67.5121C153.845 68.634 154.082 69.8269 154.082 71.091C154.082 72.3551 153.853 73.5402 153.395 74.6462C152.936 75.7365 152.296 76.6925 151.475 77.5141C150.669 78.3357 149.737 78.9836 148.678 79.4576C147.619 79.9158 146.49 80.145 145.289 80.145C144.04 80.145 142.863 79.9 141.757 79.4102C140.667 78.9204 139.711 78.2488 138.889 77.3956C138.068 76.5265 137.42 75.5311 136.946 74.4092C136.487 73.2874 136.258 72.1023 136.258 70.854C136.258 69.6215 136.48 68.4602 136.922 67.3699C137.364 66.2796 137.981 65.3158 138.771 64.4783C139.577 63.6251 140.509 62.9614 141.568 62.4874C142.626 62.0134 143.78 61.7764 145.028 61.7764ZM144.767 63.8621C143.187 63.8621 141.963 64.3914 141.093 65.4501C140.224 66.4929 139.79 67.8755 139.79 69.5978C139.79 70.2773 139.861 71.0041 140.003 71.7784C140.145 72.5526 140.359 73.3111 140.643 74.0537C140.943 74.7805 141.323 75.4442 141.781 76.0446C142.239 76.6451 142.776 77.127 143.393 77.4904C144.009 77.8538 144.72 78.0355 145.526 78.0355C146.6 78.0355 147.509 77.7985 148.251 77.3245C149.01 76.8347 149.579 76.1631 149.958 75.3099C150.353 74.4408 150.55 73.4454 150.55 72.3235C150.55 71.7073 150.479 71.0199 150.337 70.2615C150.211 69.503 149.997 68.7525 149.697 68.0098C149.413 67.2514 149.041 66.5641 148.583 65.9478C148.141 65.3158 147.603 64.8101 146.971 64.4309C146.339 64.0517 145.605 63.8621 144.767 63.8621Z" fill="white"/>
<path d="M126.344 76.1634C126.344 76.7954 126.455 77.3326 126.676 77.7751C126.913 78.2017 127.332 78.415 127.932 78.415H128.075C128.312 78.415 128.43 78.5335 128.43 78.7705V79.4816C128.43 79.7186 128.312 79.8371 128.075 79.8371H120.798C120.561 79.8371 120.443 79.7186 120.443 79.4816V78.7705C120.443 78.5335 120.561 78.415 120.798 78.415H120.941C121.541 78.415 121.96 78.2017 122.197 77.7751C122.434 77.3326 122.552 76.7954 122.552 76.1634V71.6601H114.446V76.1634C114.446 76.7954 114.565 77.3326 114.802 77.7751C115.039 78.2017 115.458 78.415 116.058 78.415H116.2C116.437 78.415 116.556 78.5335 116.556 78.7705V79.4816C116.556 79.7186 116.437 79.8371 116.2 79.8371H108.924C108.687 79.8371 108.568 79.7186 108.568 79.4816V78.7705C108.568 78.5335 108.687 78.415 108.924 78.415H109.066C109.667 78.415 110.077 78.2017 110.299 77.7751C110.536 77.3326 110.654 76.7954 110.654 76.1634V65.7348C110.654 65.1027 110.536 64.5734 110.299 64.1468C110.077 63.7043 109.667 63.4831 109.066 63.4831H108.924C108.687 63.4831 108.568 63.3646 108.568 63.1276V62.4166C108.568 62.1795 108.687 62.061 108.924 62.061H116.2C116.437 62.061 116.556 62.1795 116.556 62.4166V63.1276C116.556 63.3646 116.437 63.4831 116.2 63.4831H116.058C115.458 63.4831 115.039 63.7043 114.802 64.1468C114.565 64.5734 114.446 65.1027 114.446 65.7348V69.7877H122.552V65.7348C122.552 65.1027 122.434 64.5734 122.197 64.1468C121.96 63.7043 121.541 63.4831 120.941 63.4831H120.798C120.561 63.4831 120.443 63.3646 120.443 63.1276V62.4166C120.443 62.1795 120.561 62.061 120.798 62.061H128.075C128.312 62.061 128.43 62.1795 128.43 62.4166V63.1276C128.43 63.3646 128.312 63.4831 128.075 63.4831H127.932C127.332 63.4831 126.913 63.7043 126.676 64.1468C126.455 64.5734 126.344 65.1027 126.344 65.7348V76.1634Z" fill="white"/>
<path d="M269.184 36.8782C269.421 36.8782 269.54 36.9967 269.54 37.2337V37.9447C269.54 38.1818 269.421 38.3003 269.184 38.3003C268.6 38.3003 268.165 38.5136 267.881 38.9402C267.596 39.3668 267.454 39.9041 267.454 40.5519V54.2987C267.454 54.5357 267.336 54.6542 267.099 54.6542H265.463C265.305 54.6542 265.163 54.5831 265.037 54.4409L253.826 41.5474V50.9805C253.826 51.6125 253.968 52.1498 254.252 52.5922C254.553 53.0188 254.995 53.2321 255.58 53.2321C255.817 53.2321 255.935 53.3507 255.935 53.5877V54.2987C255.935 54.5357 255.817 54.6542 255.58 54.6542H249.726C249.488 54.6542 249.37 54.5357 249.37 54.2987V53.5877C249.37 53.3507 249.488 53.2321 249.726 53.2321C250.31 53.2321 250.745 53.0188 251.029 52.5922C251.314 52.1498 251.456 51.6125 251.456 50.9805V38.8928C251.219 38.6874 250.982 38.5373 250.745 38.4425C250.523 38.3477 250.263 38.3003 249.963 38.3003C249.726 38.3003 249.607 38.1818 249.607 37.9447V37.2337C249.607 36.9967 249.726 36.8782 249.963 36.8782H254.063C254.237 36.8782 254.379 36.9493 254.49 37.0915L265.084 49.1792V40.5519C265.084 39.9041 264.934 39.3668 264.634 38.9402C264.349 38.5136 263.915 38.3003 263.33 38.3003C263.093 38.3003 262.975 38.1818 262.975 37.9447V37.2337C262.975 36.9967 263.093 36.8782 263.33 36.8782H269.184Z" fill="white"/>
<path d="M232.492 36.5935C233.74 36.5935 234.91 36.8384 236 37.3282C237.106 37.8181 238.07 38.4975 238.891 39.3666C239.729 40.2198 240.377 41.2074 240.835 42.3292C241.309 43.4511 241.546 44.6441 241.546 45.9082C241.546 47.1722 241.317 48.3573 240.859 49.4634C240.4 50.5536 239.76 51.5096 238.939 52.3312C238.133 53.1529 237.201 53.8007 236.142 54.2748C235.083 54.733 233.954 54.9621 232.753 54.9621C231.504 54.9621 230.327 54.7172 229.221 54.2274C228.131 53.7375 227.175 53.066 226.353 52.2127C225.532 51.3437 224.884 50.3482 224.41 49.2264C223.952 48.1045 223.722 46.9194 223.722 45.6711C223.722 44.4387 223.944 43.2773 224.386 42.187C224.829 41.0968 225.445 40.1329 226.235 39.2955C227.041 38.4422 227.973 37.7786 229.032 37.3045C230.09 36.8305 231.244 36.5935 232.492 36.5935ZM232.231 38.6792C230.651 38.6792 229.427 39.2086 228.558 40.2672C227.689 41.3101 227.254 42.6927 227.254 44.415C227.254 45.0944 227.325 45.8213 227.467 46.5955C227.61 47.3697 227.823 48.1282 228.107 48.8708C228.407 49.5977 228.787 50.2613 229.245 50.8618C229.703 51.4622 230.24 51.9441 230.857 52.3075C231.473 52.671 232.184 52.8527 232.99 52.8527C234.064 52.8527 234.973 52.6157 235.715 52.1416C236.474 51.6518 237.043 50.9803 237.422 50.127C237.817 49.258 238.014 48.2625 238.014 47.1406C238.014 46.5244 237.943 45.8371 237.801 45.0786C237.675 44.3202 237.461 43.5696 237.161 42.827C236.877 42.0685 236.505 41.3812 236.047 40.765C235.605 40.1329 235.068 39.6273 234.436 39.2481C233.804 38.8688 233.069 38.6792 232.231 38.6792Z" fill="white"/>
<path d="M213.811 50.9805C213.811 51.6125 213.929 52.1498 214.166 52.5922C214.403 53.0188 214.814 53.2321 215.399 53.2321H215.541C215.778 53.2321 215.897 53.3507 215.897 53.5877V54.2987C215.897 54.5357 215.778 54.6542 215.541 54.6542H208.265C208.028 54.6542 207.909 54.5357 207.909 54.2987V53.5877C207.909 53.3507 208.028 53.2321 208.265 53.2321H208.431C209.031 53.2321 209.442 53.0188 209.663 52.5922C209.9 52.1498 210.019 51.6125 210.019 50.9805V40.5519C210.019 39.9199 209.9 39.3905 209.663 38.9639C209.442 38.5215 209.031 38.3003 208.431 38.3003H208.265C208.028 38.3003 207.909 38.1818 207.909 37.9447V37.2337C207.909 36.9967 208.028 36.8782 208.265 36.8782H215.541C215.778 36.8782 215.897 36.9967 215.897 37.2337V37.9447C215.897 38.1818 215.778 38.3003 215.541 38.3003H215.399C214.814 38.3003 214.403 38.5215 214.166 38.9639C213.929 39.3905 213.811 39.9199 213.811 40.5519V50.9805Z" fill="white"/>
<path d="M196.738 36.8782C196.817 36.8782 196.904 36.8703 196.999 36.8545C197.109 36.8229 197.22 36.7518 197.331 36.6412C197.394 36.578 197.465 36.5464 197.544 36.5464C197.67 36.5464 197.765 36.6175 197.828 36.7597L199.701 40.2201C199.748 40.3149 199.772 40.386 199.772 40.4334C199.772 40.5598 199.709 40.6546 199.582 40.7178L198.587 41.263C198.492 41.3104 198.413 41.3341 198.35 41.3341C198.255 41.3341 198.168 41.263 198.089 41.1208L198.018 40.9786C197.623 40.1885 197.054 39.6276 196.311 39.2958C195.569 38.9639 194.716 38.798 193.752 38.798H192.59V50.9805C192.59 51.6126 192.709 52.1498 192.946 52.5922C193.183 53.0189 193.602 53.2322 194.202 53.2322H194.368C194.605 53.2322 194.723 53.3507 194.723 53.5877V54.2987C194.723 54.5358 194.605 54.6543 194.368 54.6543H187.068C186.831 54.6543 186.712 54.5358 186.712 54.2987V53.5877C186.712 53.3507 186.831 53.2322 187.068 53.2322H187.21C187.811 53.2322 188.229 53.0189 188.466 52.5922C188.703 52.1498 188.822 51.6126 188.822 50.9805V38.798H187.66C186.697 38.798 185.843 38.9639 185.101 39.2958C184.358 39.6276 183.789 40.1885 183.394 40.9786L183.323 41.1208C183.244 41.263 183.157 41.3341 183.062 41.3341C182.999 41.3341 182.92 41.3104 182.825 41.263L181.83 40.7178C181.703 40.6546 181.64 40.5598 181.64 40.4334C181.64 40.386 181.664 40.3149 181.711 40.2201L183.584 36.7597C183.663 36.6175 183.758 36.5464 183.868 36.5464C183.947 36.5464 184.018 36.578 184.082 36.6412C184.192 36.7518 184.295 36.8229 184.39 36.8545C184.5 36.8703 184.595 36.8782 184.674 36.8782H196.738Z" fill="white"/>
<path d="M173.96 48.9656C174.055 49.013 174.134 49.0604 174.197 49.1078C174.261 49.1394 174.292 49.1948 174.292 49.2738C174.292 49.3054 174.276 49.3686 174.245 49.4634C173.992 50.0796 173.644 50.7116 173.202 51.3595C172.775 51.9915 172.238 52.5841 171.59 53.1371C170.958 53.6901 170.2 54.1325 169.315 54.4644C168.446 54.7962 167.442 54.9621 166.305 54.9621C164.409 54.9621 162.805 54.5671 161.493 53.777C160.182 52.987 159.186 51.9125 158.507 50.5536C157.828 49.179 157.488 47.6463 157.488 45.9556C157.488 45.1655 157.575 44.3439 157.749 43.4906C157.922 42.6216 158.207 41.7762 158.602 40.9546C158.997 40.1329 159.526 39.3982 160.19 38.7503C160.869 38.0867 161.707 37.5653 162.702 37.186C163.698 36.791 164.875 36.5935 166.234 36.5935C167.371 36.5935 168.351 36.7357 169.173 37.0201C169.994 37.3045 170.682 37.668 171.235 38.1104C171.788 38.537 172.23 38.9873 172.562 39.4614C172.894 39.9354 173.131 40.3778 173.273 40.7887C173.415 41.1995 173.486 41.5076 173.486 41.713C173.486 41.9342 173.352 42.0922 173.083 42.187L170.192 43.2062C170.034 43.2694 169.892 43.301 169.765 43.301C169.576 43.301 169.481 43.222 169.481 43.064C169.481 43.0324 169.489 42.9139 169.505 42.7085C169.52 42.5031 169.528 42.3608 169.528 42.2818C169.528 41.713 169.426 41.1363 169.22 40.5516C169.015 39.967 168.659 39.4772 168.154 39.0822C167.648 38.6713 166.945 38.4659 166.044 38.4659C165.191 38.4659 164.472 38.6713 163.887 39.0822C163.318 39.493 162.86 40.0302 162.513 40.6938C162.165 41.3575 161.912 42.0606 161.754 42.8033C161.612 43.5459 161.541 44.2491 161.541 44.9127C161.541 46.4454 161.723 47.7964 162.086 48.9656C162.449 50.1191 163.01 51.0277 163.769 51.6913C164.543 52.3391 165.515 52.6631 166.684 52.6631C167.853 52.6631 168.809 52.4576 169.552 52.0468C170.31 51.636 170.911 51.1383 171.353 50.5536C171.811 49.9532 172.167 49.3686 172.42 48.7997C172.515 48.5943 172.649 48.4916 172.823 48.4916C172.902 48.4916 173.004 48.5232 173.131 48.5864L173.96 48.9656Z" fill="white"/>
<path d="M150.029 36.8782C150.266 36.8782 150.385 36.9967 150.385 37.2337V37.9447C150.385 38.1818 150.266 38.3003 150.029 38.3003H149.863C149.279 38.3003 148.868 38.5215 148.631 38.9639C148.394 39.3905 148.275 39.9199 148.275 40.5519V48.1363C148.275 50.3169 147.73 51.9997 146.64 53.1847C145.565 54.3698 143.851 54.9623 141.497 54.9623C139.158 54.9623 137.349 54.3777 136.069 53.2084C134.805 52.0392 134.173 50.4275 134.173 48.3734V40.5519C134.173 39.9199 134.054 39.3905 133.817 38.9639C133.596 38.5215 133.185 38.3003 132.585 38.3003H132.419C132.182 38.3003 132.063 38.1818 132.063 37.9447V37.2337C132.063 36.9967 132.182 36.8782 132.419 36.8782H139.695C139.932 36.8782 140.051 36.9967 140.051 37.2337V37.9447C140.051 38.1818 139.932 38.3003 139.695 38.3003H139.553C138.968 38.3003 138.558 38.5215 138.321 38.9639C138.084 39.3905 137.965 39.9199 137.965 40.5519V47.8993C137.965 48.563 138.012 49.195 138.107 49.7954C138.202 50.3959 138.392 50.9252 138.676 51.3834C138.976 51.8417 139.403 52.2051 139.956 52.4737C140.525 52.7423 141.267 52.8766 142.184 52.8766C143.1 52.8766 143.827 52.6633 144.364 52.2367C144.902 51.7943 145.289 51.2017 145.526 50.4591C145.763 49.7006 145.881 48.8474 145.881 47.8993V40.5519C145.881 39.9199 145.763 39.3905 145.526 38.9639C145.305 38.5215 144.894 38.3003 144.293 38.3003H144.151C143.914 38.3003 143.796 38.1818 143.796 37.9447V37.2337C143.796 36.9967 143.914 36.8782 144.151 36.8782H150.029Z" fill="white"/>
<path d="M124.235 50.9805C124.488 51.6284 124.733 52.1656 124.97 52.5922C125.207 53.0188 125.547 53.2321 125.989 53.2321C126.147 53.2321 126.242 53.2637 126.273 53.327C126.321 53.3744 126.345 53.4613 126.345 53.5877V54.2987C126.345 54.5357 126.226 54.6542 125.989 54.6542H118.713C118.476 54.6542 118.357 54.5357 118.357 54.2987V53.5877C118.357 53.4613 118.373 53.3744 118.405 53.327C118.452 53.2637 118.555 53.2321 118.713 53.2321C119.139 53.2321 119.55 53.0741 119.945 52.7581C120.356 52.4421 120.561 52.055 120.561 51.5967C120.561 51.4861 120.546 51.3834 120.514 51.2886C120.498 51.1938 120.474 51.0911 120.443 50.9805L119.708 48.9659H113.214L112.503 50.9805C112.471 51.0911 112.448 51.2017 112.432 51.3123C112.416 51.4071 112.408 51.494 112.408 51.573C112.408 52.0787 112.613 52.4816 113.024 52.7818C113.435 53.082 113.846 53.2321 114.257 53.2321C114.431 53.2321 114.533 53.2637 114.565 53.327C114.596 53.3744 114.612 53.4613 114.612 53.5877V54.2987C114.612 54.5357 114.494 54.6542 114.257 54.6542H108.355C108.118 54.6542 108 54.5357 108 54.2987V53.5877C108 53.4613 108.015 53.3744 108.047 53.327C108.094 53.2637 108.197 53.2321 108.355 53.2321C108.829 53.2321 109.185 53.0109 109.422 52.5685C109.674 52.1261 109.911 51.5967 110.133 50.9805L115.229 37.1863C115.292 36.9809 115.426 36.8782 115.631 36.8782H118.499C118.705 36.8782 118.839 36.973 118.902 37.1626L124.235 50.9805ZM113.949 46.9039H118.95L116.39 39.9831L113.949 46.9039Z" fill="white"/>
</svg>
