<svg width="859" height="858" viewBox="0 0 859 858" fill="none" xmlns="http://www.w3.org/2000/svg">
<path d="M835.89 271.061L429.532 0.110352L23.0375 271.061C9.00635 280.461 0.560425 296.126 0.560425 313.018V807.514C0.560425 835.303 23.1737 857.917 50.9635 857.917H507.316L427.761 655.487L538.375 612.031L634.958 857.917H807.964C835.754 857.917 858.367 835.303 858.367 807.514V313.018C858.367 296.126 849.921 280.461 835.89 271.061ZM308.019 702.484L306.793 703.029C282.545 712.565 255.028 700.577 245.492 676.329L172.885 491.336C163.349 467.088 175.337 439.571 199.585 430.035L200.811 429.49C225.059 419.955 252.576 431.942 262.112 456.19L334.719 641.183C344.255 665.431 332.267 692.949 308.019 702.484ZM371.5 630.285L296.44 439.162L487.563 364.102L562.623 555.226L371.5 630.285ZM659.479 564.489L658.253 565.034C634.005 574.57 606.487 562.582 596.952 538.334L524.344 353.341C514.808 329.093 526.796 301.575 551.044 292.04L552.27 291.495C576.518 281.959 604.035 293.947 613.571 318.195L686.179 503.188C695.715 527.436 683.727 554.953 659.479 564.489Z" fill="white" fill-opacity="0.1"/>
</svg>
