<svg width="30" height="30" viewBox="0 0 30 30" fill="none" xmlns="http://www.w3.org/2000/svg">
<g clip-path="url(#clip0_13_489)">
<path d="M29.2139 9.47594L15.0024 0L0.786089 9.47594C0.295379 9.80467 0 10.3525 0 10.9433V28.2373C0 29.2091 0.790853 30 1.76274 30H17.7227L14.9404 22.9204L18.809 21.4007L22.1868 30H28.2373C29.2091 30 30 29.2091 30 28.2373V10.9433C30 10.3525 29.7046 9.80467 29.2139 9.47594ZM10.7527 24.5641L10.7099 24.5831C9.86184 24.9166 8.89948 24.4974 8.56598 23.6494L6.02668 17.1796C5.69319 16.3316 6.11243 15.3692 6.96046 15.0357L7.00333 15.0167C7.85136 14.6832 8.81372 15.1024 9.14721 15.9505L11.6865 22.4202C12.02 23.2682 11.6008 24.2306 10.7527 24.5641ZM12.9728 22.0391L10.3478 15.3549L17.0319 12.7299L19.657 19.414L12.9728 22.0391ZM23.0443 19.738L23.0014 19.757C22.1534 20.0905 21.191 19.6713 20.8575 18.8232L18.3182 12.3535C17.9848 11.5055 18.404 10.5431 19.252 10.2096L19.2949 10.1906C20.1429 9.85707 21.1053 10.2763 21.4388 11.1243L23.9781 17.5941C24.3116 18.4421 23.8923 19.4045 23.0443 19.738Z" fill="#ECCA44"/>
</g>
<defs>
<clipPath id="clip0_13_489">
<rect width="30" height="30" fill="white"/>
</clipPath>
</defs>
</svg>
